<svg height="512" viewBox="0 0 512 512" width="512" xmlns="http://www.w3.org/2000/svg"><g><path d="m96 16h400v480h-72s24-64-8-120-72-80-80-144-40-112-88-120-96-16-120-40c-20.4-20.4-32-56-32-56z" fill="#94a4a5"/><g><path d="m415.934 332.2c-9.645-17.734-10.689-38.826-9.761-58.991 1.059-23.018 4.4-45.991 3.3-69.008s-7.164-46.729-22.446-63.975c-21.222-23.951-55.184-30.786-86.406-37.8a997.755 997.755 0 0 1 -151.587-47c-15.811-6.326-33.434-23.426-37.91-39.426h-.007c.46 2 .92 11.991 1.38 13.987-.46-2-.92-11.991-1.38-13.987h-15.117s11.6 35.6 32 56c24 24 72 32 120 40s80 56 88 120 48 88 80 144 8 120 8 120h55.058c-3.677-42.95-10.069-95.035-36-128.945-8.965-11.713-20.078-21.904-27.124-34.855z" fill="#697a7a"/><path d="m451.007 179.963c-10.293-17.683-26.292-31.155-40.6-45.782-30.542-31.227-54.207-77.111-69.068-118.181h-230.215c4.473 16 22.1 33.1 37.906 39.422a997.755 997.755 0 0 0 151.587 47c31.222 7.015 65.184 13.85 86.406 37.8 15.282 17.246 21.345 40.959 22.446 63.975s-2.237 45.99-3.3 69.008c-.928 20.165.116 41.257 9.761 58.991 7.046 12.955 18.159 23.146 27.119 34.859 25.936 33.91 32.328 86 36 128.945h16.951v-192.755c-8.577-14.121-21.352-31.125-24.464-47.559-4.893-25.842-7.297-52.993-20.529-75.723z" fill="#7a8786"/></g><path d="m347.48 342.88c8.07 2.63 15.93 6.22 20.48 13.18 3.02 4.61 4.19 10.23 4.25 15.74a87.173 87.173 0 0 1 -1.9 16.4c6.83 2.02 12.33 4.14 17.56 8.97 2.93 2.71 5.7 6.49 4.74 10.36a8.39 8.39 0 0 1 -4.94 5.34 20.4 20.4 0 0 1 -7.36 1.36 74.293 74.293 0 0 1 -40.79-10.31 45.743 45.743 0 0 1 .57-21.48c-4.86-3-9.8-5.82-14.73-8.66z" fill="#eaaa94"/><g fill="#2c3f51"><path d="m359.15 347.914a57.758 57.758 0 0 0 -11.67-5.034l-22.12 30.9c3.593 2.07 7.192 4.131 10.761 6.257a63.1 63.1 0 0 0 23.029-32.123z"/><path d="m387.87 397.17c-5.23-4.83-10.73-6.95-17.56-8.97l.028-.155a29.879 29.879 0 0 1 -31.528 1.017 47.666 47.666 0 0 0 .71 14.858 74.293 74.293 0 0 0 40.79 10.31 20.4 20.4 0 0 0 7.36-1.36 8.39 8.39 0 0 0 4.94-5.34c.96-3.87-1.81-7.65-4.74-10.36z"/></g><path d="m300.5 307.2c7.38 2.01 16.02 6.17 21.2-.71 5.83-7.73 8.19-15.12 17.25-20.35a40.117 40.117 0 0 1 34.89-2.28c.51-5.01 1.07-10.2 3.61-14.55s7.64-7.63 12.53-6.43c7.1 1.75 9.12 10.85 8.98 18.16a105.951 105.951 0 0 1 -6.91 35.64h-38.06c-2.24 11.15-4.51 22.4-9.08 32.81s-11.72 20.04-21.66 25.56c-14.31 7.95-32.45 6.17-47.3-.72s-27.09-18.26-38.9-29.59c-4.57-4.39-9.2-8.93-12.43-14.31l23.38-50.43z" fill="#fad6c6"/><path d="m326.875 298.747c-1.59 2.494-3.179 5.1-5.175 7.743-2.9 3.854-6.888 4.243-11.131 3.487a268.558 268.558 0 0 1 -34.4 64.453c14.808 6.805 32.838 8.531 47.077.62 9.94-5.52 17.08-15.16 21.66-25.56 4.555-10.376 6.825-21.587 9.058-32.7a49.021 49.021 0 0 0 -27.089-18.043z" fill="#35495e"/><path d="m300.5 307.2-52.5-27.2-23.38 50.43c3.23 5.38 7.86 9.92 12.43 14.31 11.81 11.33 24.05 22.71 38.9 29.59l.223.1a268.558 268.558 0 0 0 34.4-64.453c-3.337-.593-6.827-1.893-10.073-2.777z" fill="#f98800"/><path d="m389.98 262.88c-4.89-1.2-10 2.08-12.53 6.43s-3.1 9.54-3.61 14.55c-.054-.022-.109-.04-.163-.062a54.116 54.116 0 0 1 .506 32.882h17.867a105.951 105.951 0 0 0 6.91-35.64c.14-7.31-1.88-16.41-8.98-18.16z" fill="#35495e"/><path d="m243.34 206.23a121.214 121.214 0 0 1 13.97-18.76c4.88-5.38 10.51-10.48 17.48-12.52s15.51-.19 19.4 5.94a13.1 13.1 0 0 1 -16.82 18.78 288.5 288.5 0 0 0 -21.48 51.82z" fill="#eaaa94"/><g><path d="m294.19 180.89c-3.89-6.13-12.44-7.98-19.4-5.94-5.01 1.466-9.325 4.517-13.169 8.112a34.833 34.833 0 0 1 15.279 17.523c.161-.3.313-.611.475-.915a13.1 13.1 0 0 0 16.82-18.78z" fill="#bcc2c6"/><path d="m261.621 183.062c-1.5 1.407-2.939 2.895-4.311 4.408-.18.2-.355.4-.534.6a33.328 33.328 0 0 1 16.909 18.753q1.563-3.133 3.21-6.24a34.833 34.833 0 0 0 -15.274-17.521z" fill="#35495e"/></g><path d="m280 16h16v480h-16z" fill="#e22526"/><path d="m311.822 269.151q.077 2.589-.067 5.178c-.968 17.542-10.44 38.289-26.433 47.03-9.258 5.061-21.414 5.5-30.024-.6a23.97 23.97 0 0 1 -9.887-17.308c-1.519-18.148 20.1-31.042 36.707-38.528-2.551-8.867-5.956-17.022-8.507-25.888-1.126-3.916-2.084-8.639.661-11.649a8.12 8.12 0 0 1 6.479-2.27 24.014 24.014 0 0 1 6.843 1.779 28.227 28.227 0 0 1 -.48-11.41c.748-3.448 3.542-6.724 7.068-6.8 2.451-.054 4.691 1.4 6.447 3.113 7.428 7.243 8.124 20.3 1.508 28.287.8-.97 7.305 13.992 7.729 15.576a58.858 58.858 0 0 1 1.956 13.49z" fill="#fad6c6"/><g><path d="m302.41 240.129a42.934 42.934 0 0 0 -26.223 7c.742 2.179 1.5 4.343 2.255 6.51a88 88 0 0 1 28.474-5.038c-1.729-3.825-3.716-7.852-4.506-8.472z" fill="#35495e"/><path d="m302.41 240.129c-.118-.093-.213-.118-.273-.046 6.616-7.992 5.92-21.044-1.508-28.286-1.756-1.712-4-3.168-6.447-3.114-3.526.077-6.32 3.353-7.067 6.8a28.208 28.208 0 0 0 .479 11.41 24.014 24.014 0 0 0 -6.843-1.779 8.12 8.12 0 0 0 -6.479 2.27c-2.745 3.01-1.787 7.733-.661 11.649.792 2.753 1.67 5.434 2.576 8.092a42.934 42.934 0 0 1 26.223-6.996z" fill="#bcc2c6"/><path d="m275.591 268.044c-15.206 7.732-31.506 19.568-30.18 35.406a23.97 23.97 0 0 0 9.887 17.308c8.61 6.1 20.766 5.662 30.024.6 10.186-5.567 17.721-16 22.1-27.383a59.646 59.646 0 0 0 -31.831-25.931z" fill="#f98800"/></g><path d="m245.34 301.91v.01a103.989 103.989 0 1 1 6.39-16.37v.01z" fill="#fad6c6"/><path d="m166.259 228.322c-13.615 12.22-27.34 25.767-40.956 37.986 21.56-33.084 26.877-76.172 14.3-113.569a104 104 0 1 0 77.881 184.048c-3.798-41.35-20.171-80.616-51.225-108.465z" fill="#683b11"/><path d="m263.692 253.8a8 8 0 0 0 -9.89-5.494l-52.1 14.884-68.794-53.507-9.824 12.63 66.824 51.974-37.067 74.133 14.31 7.156 38.426-76.852 52.623-15.032a8 8 0 0 0 5.492-9.892z" fill="#00a8e7"/><path d="m184 200h-8a8 8 0 0 1 0-16h8a8 8 0 0 1 0 16z" fill="#683b11"/><path d="m120.3 130.646 56.157 248.709a127.54 127.54 0 0 1 -56.157-248.709z" fill="#fcc200"/><g><path d="m116.42 131.715q-4.055 1.177-8 2.606a192.2 192.2 0 0 1 -14.749 103.133 192.109 192.109 0 0 1 -56.475 72.3 128.074 128.074 0 0 0 50.404 54.515c17.472-30.669 27.024-65.982 30.927-101.263 4.825-43.578 1.629-87.568-2.107-131.291z" fill="#f98800"/><path d="m176.461 379.355-56.161-248.709c-1.3.333-2.6.7-3.884 1.069 3.736 43.723 6.932 87.713 2.111 131.291-3.9 35.281-13.455 70.594-30.927 101.263a127.781 127.781 0 0 0 88.857 15.086z" fill="#d87100"/></g><path d="m161.577 265.788c-4.514 1.8-7.474 6.244-9.088 10.829-2.013 5.715-2.3 12.232.26 17.722s8.309 9.647 14.361 9.343c26.16-1.316 20.824-48.414-5.533-37.894z" fill="#fad6c6"/><circle cx="216" cy="224" fill="#f78663" r="16"/></g></svg>