<svg id="Capa_1" enable-background="new 0 0 512 512" height="512" viewBox="0 0 512 512" width="512" xmlns="http://www.w3.org/2000/svg"><g><path d="m353.609 499.548-14.562 12.452h-170.328l-16.882-8.918 1.879-20.261c3.793-18.485-.895-33.565 15.003-41.754 4.764-2.474 9.876-4.314 15.233-5.449 4.079-.869 8.302-1.319 12.616-1.319l57.319 33.974 57.31-33.974c4.304 0 8.527.45 12.606 1.319 5.357 1.135 10.479 2.985 15.244 5.449 15.888 8.199 17.229 23.269 21.022 41.754z" fill="#e27d47"/><path d="m219.837 434.299c-2.556 0-5.061.45-7.484 1.319-13.802 4.918-24.915 23.177-27.85 47.203l-3.557 29.179h-49.861l5.991-29.179c4.928-24.026 23.648-42.286 46.876-47.203 4.079-.869 8.302-1.319 12.616-1.319z" fill="#dd6938"/><path d="m196.569 434.304h114.628v53.786h-114.628z" fill="#9dc6fb"/><path d="m219.841 434.304c-2.555 0-5.069.443-7.489 1.319-5.893 2.091-11.291 6.634-15.782 13.011v-14.33z" fill="#80b4fb"/><path d="m379.842 512h-40.795v-70.933c15.888 8.199 27.85 23.269 31.643 41.754z" fill="#9dc6fb"/><path d="m168.719 441.067v70.933h-37.634l5.991-29.179c3.793-18.484 15.745-33.564 31.643-41.754z" fill="#80b4fb"/><path d="m287.861 377.557v56.742c0 18.761-15.213 33.974-33.974 33.974-18.771 0-33.984-15.213-33.984-33.974v-56.742z" fill="#ffddce"/><path d="m264.983 466.42c-3.476 1.196-7.208 1.85-11.093 1.85-18.771 0-33.984-15.213-33.984-33.974v-56.742h22.186v56.742c0 14.887 9.569 27.534 22.891 32.124z" fill="#ffcbbe"/><path d="m111.942 330.309c-24.498 0-44.357-19.859-44.357-44.357 0-3.372.376-6.655 1.089-9.811 5.754-25.485 43.268-21.305 43.268 4.821h283.884c0-26.126 37.514-30.306 43.268-4.821.713 3.156 1.089 6.44 1.089 9.811 0 24.498-19.859 44.357-44.357 44.357" fill="#ffcbbe"/><path d="m111.95 302.736c-2.428 0-4.816-1.141-6.32-3.272-.168-.231-7.062-9.621-14.296-6.701-3.958 1.597-8.46-.318-10.055-4.275-1.597-3.957.317-8.459 4.275-10.056 7.858-3.171 16.413-1.898 24.087 3.587 5.157 3.686 8.298 8.079 8.639 8.568 2.442 3.499 1.586 8.316-1.913 10.758-1.349.939-2.891 1.391-4.417 1.391z" fill="#eaac9d"/><path d="m395.819 302.736c-1.526 0-3.068-.451-4.415-1.391-3.499-2.442-4.355-7.259-1.913-10.758.341-.489 3.482-4.882 8.639-8.568 7.672-5.484 16.226-6.758 24.087-3.587 3.958 1.597 5.871 6.099 4.275 10.056-1.597 3.956-6.101 5.871-10.055 4.275-7.302-2.945-14.205 6.571-14.273 6.669-1.504 2.151-3.905 3.304-6.345 3.304z" fill="#eaac9d"/><path d="m219.903 377.557h67.958v52.274h-67.958z" fill="#ffcbbe"/><path d="m292.371 411.845h-76.974c-57.137 0-103.455-46.318-103.455-103.455v-44.815l29.959-101.093h239.462l14.463 101.093v44.815c0 57.137-46.318 103.455-103.455 103.455z" fill="#ffddce"/><path d="m366.943 190.006s-6.748 73.569 28.881 73.569v-90.903z" fill="#665e66"/><path d="m283.355 411.845h-67.958c-57.131 0-103.455-46.324-103.455-103.455v-145.914h67.958v145.914c0 57.131 46.314 103.455 103.455 103.455z" fill="#ffcbbe"/><path d="m140.824 190.006s6.748 73.569-28.881 73.569v-90.903z" fill="#544f57"/><g fill="#544f57"><ellipse cx="181.064" cy="272.576" rx="13.391" ry="22.233"/><path d="m326.704 250.343c-7.383 0-13.39 9.974-13.39 22.233s6.007 22.233 13.39 22.233c7.384 0 13.391-9.974 13.391-22.233.001-12.259-6.006-22.233-13.391-22.233z"/></g><path d="m253.887 346.535c-14.889 0-28.251-8.869-34.039-22.596-1.658-3.932.186-8.463 4.118-10.121s8.463.185 10.122 4.117c3.367 7.986 11.139 13.147 19.8 13.147s16.433-5.16 19.8-13.147c1.659-3.932 6.192-5.775 10.122-4.117 3.932 1.658 5.776 6.189 4.118 10.121-5.79 13.727-19.151 22.596-34.041 22.596z" fill="#da4a54"/><ellipse cx="337.495" cy="315.745" fill="#eab1b7" rx="23.235" ry="14.128"/><ellipse cx="170.273" cy="315.745" fill="#eab1b7" rx="23.235" ry="14.128"/><path d="m267.706 299.986h-27.644c-4.268 0-7.726-3.459-7.726-7.726s3.459-7.726 7.726-7.726h27.644c4.268 0 7.726 3.459 7.726 7.726.001 4.267-3.458 7.726-7.726 7.726z" fill="#ffcbbe"/><path d="m408.601 118.605v63.346c-1.185.185-2.39.268-3.626.268h-302.184c-1.236 0-2.442-.082-3.626-.268v-63.346c0-33.821 18.327-63.377 45.586-79.242 10.147-5.924 21.521-9.941 33.656-11.569 4.059-.556 8.2-.845 12.414-.845h126.135c4.214 0 8.355.288 12.414.845 12.136 1.628 23.509 5.645 33.656 11.569 27.248 15.875 45.575 45.421 45.575 79.242z" fill="#e27d47"/><g fill="#dd6938"><path d="m363.022 39.364v35.006c0 9.293-7.535 16.828-16.828 16.828s-16.828-7.535-16.828-16.828v-46.58c12.135 1.637 23.514 5.655 33.656 11.574z"/><path d="m178.411 27.791v46.58c0 9.293-7.535 16.828-16.828 16.828s-16.828-7.535-16.828-16.828v-35.007c10.141-5.919 21.52-9.937 33.656-11.573z"/><path d="m408.601 131.307v50.644c-1.185.185-2.39.268-3.626.268h-302.184c-1.236 0-2.442-.082-3.626-.268v-50.644c1.185-.185 2.39-.268 3.626-.268h302.183c1.237 0 2.442.082 3.627.268z"/></g><path d="m212.228 144.918c-2.715-41.793-3.017-83.585-.905-125.378.472-8.572 7.96-16.976 16.566-18.03 17.329-2.014 34.659-2.014 51.988 0 8.608 1.054 16.093 9.458 16.566 18.03 2.113 41.793 1.811 83.585-.905 125.378l-48.146 17.564z" fill="#e27d47"/><path d="m232.732 16.258c-2.167 42.889-1.861 98.363.931 141.242l-21.439-12.585c-2.72-41.785-3.016-83.58-.9-125.374.47-8.568 7.954-16.972 16.563-18.035 4.948-.573 9.887-.982 14.824-1.217-5.552 3.404-9.631 9.641-9.979 15.969z" fill="#dd6938"/><path d="m232.478 26.955c-50.62 0-91.657 41.036-91.657 91.657v71.394h-41.658v-71.394c0-50.621 41.037-91.657 91.657-91.657z" fill="#dd6938"/><path d="m293.637 231.8h-79.506c-9.215 0-17.516-5.569-21.012-14.095l-8.859-21.61 69.624-25.588 69.624 25.588-8.859 21.61c-3.496 8.526-11.797 14.095-21.012 14.095z" fill="#dd6938"/><path d="m404.976 144.918h-302.184c-14.132 0-25.588 11.456-25.588 25.588 0 14.132 11.456 25.588 25.588 25.588h302.185c14.132 0 25.588-11.456 25.588-25.588 0-14.132-11.457-25.588-25.589-25.588z" fill="#e27d47"/><path d="m154.178 196.086h-51.385c-14.134 0-25.59-11.456-25.59-25.579v-.01c0-14.124 11.456-25.579 25.59-25.579h51.385c-14.134 0-25.59 11.456-25.59 25.579v.01c.001 14.123 11.456 25.579 25.59 25.579z" fill="#dd6938"/><path d="m414.018 498.058v-54.488-8.598s17.377-7.275 28.649-17.705c.944-.874 1.505-2.08 1.581-3.364.441-7.484.977-34.684-12.279-57.049 0 0-4.368-5.824-17.951-5.824 0 0 4.851 24.329 0 39.339 0 0-9.706 4.726-19.411 4.726-9.706 0-19.411-4.726-19.411-4.726-4.851-15.01 0-39.339 0-39.339-13.582 0-17.951 5.824-17.951 5.824-13.257 22.365-12.72 49.565-12.279 57.049.076 1.284.637 2.49 1.581 3.364 11.272 10.431 28.649 17.705 28.649 17.705v8.598 56.772" fill="#c3bec6"/><g fill="#b4acb7"><path d="m398.268 394.885c1.207.132 2.434.208 3.661.208 9.706 0 19.411-4.726 19.411-4.726 4.371-13.525.866-34.608.13-38.648-2.104-.416-4.558-.69-7.452-.69 0 0 4.85 24.329 0 39.339 0-.001-7.407 3.605-15.75 4.517z"/><path d="m382.517 434.971s-17.377-7.275-28.649-17.705c-.944-.874-1.505-2.08-1.581-3.364-.441-7.484-.977-34.684 12.279-57.049 0 0 2.728-3.597 10.499-5.134.081-.444.13-.69.13-.69-13.582 0-17.951 5.824-17.951 5.824-13.257 22.365-12.721 49.565-12.279 57.049.076 1.284.637 2.49 1.581 3.364 11.272 10.431 28.649 17.705 28.649 17.705v8.598 56.772h7.322v-56.772z"/></g><path d="m410.984 452.355h-31.142c-11.222 0-20.318 9.097-20.318 20.318v19.008c0 11.222 9.097 20.318 20.318 20.318h31.142c11.222 0 20.318-9.097 20.318-20.318v-19.008c0-11.221-9.096-20.318-20.318-20.318z" fill="#ffddce"/><path d="m403.337 511.995h-23.488c-11.229 0-20.325-9.096-20.325-20.315v-19.007c0-11.229 9.097-20.325 20.325-20.325h23.488c-11.219 0-20.315 9.096-20.315 20.325v19.007c0 11.219 9.096 20.315 20.315 20.315z" fill="#ffcbbe"/></g></svg>